<svg width="30" height="30" viewBox="0 0 30 30" fill="none" xmlns="http://www.w3.org/2000/svg">
<path d="M24.1562 11.8354C24.1562 11.8354 23.4775 20.2542 23.0837 23.8004C22.8962 25.4942 21.85 26.4867 20.1362 26.5179C16.875 26.5767 13.61 26.5804 10.35 26.5117C8.70123 26.4779 7.67248 25.4729 7.48873 23.8092C7.09248 20.2317 6.41748 11.8354 6.41748 11.8354" stroke="#5F5F75" stroke-width="1.5" stroke-linecap="round" stroke-linejoin="round"/>
<path d="M25.8855 7.7998H4.68799" stroke="#5F5F75" stroke-width="1.5" stroke-linecap="round" stroke-linejoin="round"/>
<path d="M21.8012 7.79973C20.82 7.79973 19.975 7.10598 19.7825 6.14473L19.4787 4.62473C19.2912 3.92348 18.6562 3.43848 17.9325 3.43848H12.6412C11.9175 3.43848 11.2825 3.92348 11.095 4.62473L10.7912 6.14473C10.5987 7.10598 9.75371 7.79973 8.77246 7.79973" stroke="#5F5F75" stroke-width="1.5" stroke-linecap="round" stroke-linejoin="round"/>
</svg>
