<svg width="25" height="24" viewBox="0 0 25 24" fill="none" xmlns="http://www.w3.org/2000/svg">
<path d="M22.7499 7.00635C22.9239 7.00635 23.0844 7.06635 23.2119 7.16685L23.3124 7.26135L23.3379 7.29135C24.2093 8.37144 24.764 9.67215 24.9402 11.0487C25.1164 12.4253 24.9072 13.8238 24.3358 15.0886C23.7645 16.3533 22.8534 17.4347 21.704 18.2125C20.5546 18.9902 19.2119 19.4338 17.8254 19.4939L17.4999 19.4999H8.49987C8.34827 19.4999 8.1967 19.4954 8.04537 19.4864L10.5309 21.9689C10.6549 22.0931 10.7314 22.257 10.747 22.4319C10.7626 22.6067 10.7164 22.7816 10.6164 22.9259L10.5309 23.0309C10.4066 23.1549 10.2427 23.2313 10.0679 23.247C9.89298 23.2626 9.71817 23.2164 9.57387 23.1164L9.46887 23.0309L5.71887 19.2809C5.59486 19.1566 5.51838 18.9927 5.50275 18.8178C5.48713 18.643 5.53335 18.4681 5.63337 18.3238L5.71887 18.2188L9.46887 14.4689C9.60115 14.336 9.77841 14.2575 9.9657 14.2488C10.153 14.2401 10.3368 14.3019 10.4807 14.422C10.6247 14.5421 10.7185 14.7118 10.7436 14.8976C10.7687 15.0834 10.7233 15.2719 10.6164 15.4259L10.5309 15.5309L8.07537 17.9848L8.28537 17.9969L8.49987 17.9998H17.4999C18.6329 18 19.7429 17.6792 20.7012 17.0748C21.6596 16.4703 22.4272 15.6069 22.9153 14.5843C23.4034 13.5617 23.5919 12.4219 23.4591 11.2966C23.3263 10.1714 22.8776 9.1067 22.1649 8.22585C22.0768 8.11557 22.0216 7.98268 22.0057 7.84245C21.9898 7.70223 22.0138 7.56035 22.0749 7.43314C22.136 7.30592 22.2317 7.19853 22.3511 7.1233C22.4705 7.04807 22.6087 7.00805 22.7499 7.00785V7.00635ZM15.4689 0.968849C15.5932 0.844836 15.757 0.768356 15.9319 0.752732C16.1068 0.737109 16.2816 0.783332 16.4259 0.883349L16.5309 0.968849L20.2809 4.71885L20.3664 4.82385C20.4528 4.9491 20.4991 5.09767 20.4991 5.24985C20.4991 5.40203 20.4528 5.5506 20.3664 5.67585L20.2809 5.78085L16.5309 9.53085L16.4259 9.61635C16.3006 9.70279 16.152 9.74908 15.9999 9.74908C15.8477 9.74908 15.6991 9.70279 15.5739 9.61635L15.4689 9.53085L15.3834 9.42585C15.2969 9.3006 15.2506 9.15203 15.2506 8.99985C15.2506 8.84767 15.2969 8.6991 15.3834 8.57385L15.4689 8.46885L17.9244 6.01485L17.7144 6.00285L17.4999 5.99985H8.49987C7.36584 5.99978 6.255 6.3211 5.29612 6.92655C4.33724 7.53201 3.56958 8.39681 3.08211 9.42073C2.59465 10.4446 2.40733 11.5857 2.54189 12.7118C2.67645 13.8378 3.12736 14.9026 3.84237 15.7829C3.96192 15.9422 4.01327 16.1425 3.98514 16.3397C3.95701 16.5369 3.8517 16.7148 3.69237 16.8343C3.61348 16.8935 3.5237 16.9366 3.42816 16.9611C3.33262 16.9856 3.2332 16.9911 3.13555 16.9771C2.93836 16.949 2.76042 16.8437 2.64087 16.6844C1.77541 15.6026 1.22647 14.3023 1.05492 12.9276C0.883373 11.553 1.09592 10.1576 1.66899 8.89639C2.24206 7.63514 3.15326 6.55726 4.30154 5.78227C5.44982 5.00728 6.79032 4.56548 8.17437 4.50585L8.49987 4.49985H17.4999C17.6529 4.49985 17.8044 4.50435 17.9544 4.51335L15.4689 2.03085L15.3834 1.92585C15.2834 1.78155 15.2371 1.60674 15.2528 1.43186C15.2684 1.25698 15.3449 1.09313 15.4689 0.968849Z" fill="#F6F6F6" fill-opacity="0.5"/>
</svg>
