<svg width="81" height="81" viewBox="0 0 81 81" fill="none" xmlns="http://www.w3.org/2000/svg">
<path fill-rule="evenodd" clip-rule="evenodd" d="M0.083313 40.5234C0.083313 18.2153 18.224 0.083374 40.5 0.083374C62.776 0.083374 80.9167 18.2153 80.9167 40.5234C80.9167 62.7848 62.776 80.9167 40.5 80.9167C18.224 80.9167 0.083313 62.7848 0.083313 40.5234ZM55.3248 44.6141C55.7539 44.1852 56.3001 43.5223 56.4171 43.3663C57.0413 42.5475 57.3534 41.5337 57.3534 40.5237C57.3534 39.389 57.0023 38.3362 56.3391 37.4783C56.2847 37.424 56.1783 37.3082 56.0396 37.1572C55.7801 36.8748 55.4076 36.4693 55.0517 36.1136C51.8527 32.6822 43.5041 27.0671 39.1347 25.3514C38.4715 25.0823 36.7939 24.4935 35.8967 24.4545C35.0384 24.4545 34.2191 24.6495 33.4389 25.0394C32.4636 25.5854 31.6833 26.4432 31.2542 27.457C30.9811 28.1589 30.552 30.2646 30.552 30.3036C30.1229 32.6042 29.8888 36.3475 29.8888 40.4808C29.8888 44.4231 30.1229 48.0066 30.474 50.3462C30.4836 50.3558 30.5172 50.5231 30.5693 50.7831C30.7278 51.5733 31.058 53.2197 31.4103 53.8946C32.2685 55.5323 33.9461 56.5461 35.7406 56.5461H35.8967C37.067 56.5071 39.5248 55.4933 39.5248 55.4543C43.6601 53.7386 51.8137 48.3965 55.0907 44.8481L55.3248 44.6141Z" fill="#F1B488"/>
</svg>
