<svg width="30" height="30" viewBox="0 0 30 30" fill="none" xmlns="http://www.w3.org/2000/svg">
<g id="Iconly/Light-Outline/Wallet">
<g id="Wallet">
<path id="Fill 1" fill-rule="evenodd" clip-rule="evenodd" d="M27.361 19.8695H22.301C19.9298 19.8695 17.9998 17.9407 17.9985 15.5707C17.9985 13.1982 19.9285 11.2682 22.301 11.267H27.361C27.8785 11.267 28.2985 11.687 28.2985 12.2045C28.2985 12.722 27.8785 13.142 27.361 13.142H22.301C20.9623 13.1432 19.8735 14.232 19.8735 15.5695C19.8735 16.9057 20.9635 17.9945 22.301 17.9945H27.361C27.8785 17.9945 28.2985 18.4145 28.2985 18.932C28.2985 19.4495 27.8785 19.8695 27.361 19.8695Z" fill="#3A3A55"/>
<path id="Fill 3" fill-rule="evenodd" clip-rule="evenodd" d="M22.8729 16.4294H22.4829C21.9654 16.4294 21.5454 16.0094 21.5454 15.4919C21.5454 14.9744 21.9654 14.5544 22.4829 14.5544H22.8729C23.3904 14.5544 23.8104 14.9744 23.8104 15.4919C23.8104 16.0094 23.3904 16.4294 22.8729 16.4294Z" fill="#3A3A55"/>
<g id="Group 7">
<mask id="mask0_1:548" style="mask-type:alpha" maskUnits="userSpaceOnUse" x="2" y="3" width="27" height="25">
<path id="Clip 6" fill-rule="evenodd" clip-rule="evenodd" d="M2.5 3.75H28.2982V27.7161H2.5V3.75Z" fill="white"/>
</mask>
<g mask="url(#mask0_1:548)">
<path id="Fill 5" fill-rule="evenodd" clip-rule="evenodd" d="M9.99701 5.625C6.89701 5.625 4.37451 8.1475 4.37451 11.2475V20.2188C4.37451 23.3188 6.89701 25.8413 9.99701 25.8413H20.802C23.902 25.8413 26.4233 23.3188 26.4233 20.2188V11.2475C26.4233 8.1475 23.902 5.625 20.802 5.625H9.99701ZM20.802 27.7163H9.99701C5.86326 27.7163 2.49951 24.3525 2.49951 20.2188V11.2475C2.49951 7.1125 5.86326 3.75 9.99701 3.75H20.802C24.9358 3.75 28.2983 7.1125 28.2983 11.2475V20.2188C28.2983 24.3525 24.9358 27.7163 20.802 27.7163Z" fill="#3A3A55"/>
</g>
</g>
<path id="Fill 8" fill-rule="evenodd" clip-rule="evenodd" d="M15.8557 11.2976H9.10693C8.58943 11.2976 8.16943 10.8776 8.16943 10.3601C8.16943 9.84261 8.58943 9.42261 9.10693 9.42261H15.8557C16.3732 9.42261 16.7932 9.84261 16.7932 10.3601C16.7932 10.8776 16.3732 11.2976 15.8557 11.2976Z" fill="#3A3A55"/>
</g>
</g>
</svg>
